<svg width="16" height="17" viewBox="0 0 16 17" fill="none" xmlns="http://www.w3.org/2000/svg">
<g clip-path="url(#clip0_92_1624)">
<path fill-rule="evenodd" clip-rule="evenodd" d="M8 4.68823C5.79086 4.68823 4 6.47909 4 8.68823C4 10.8973 5.79086 12.6882 8 12.6882C10.2091 12.6882 12 10.8973 12 8.68823C12 6.47909 10.2091 4.68823 8 4.68823ZM6 8.68823C6 7.58366 6.89543 6.68823 8 6.68823C9.10457 6.68823 10 7.58366 10 8.68823C10 9.7928 9.10457 10.6882 8 10.6882C6.89543 10.6882 6 9.7928 6 8.68823Z" fill="black"/>
<path fill-rule="evenodd" clip-rule="evenodd" d="M8 0.688232C3.58172 0.688232 0 4.26995 0 8.68823C0 13.1065 3.58172 16.6882 8 16.6882C12.4183 16.6882 16 13.1065 16 8.68823C16 4.26995 12.4183 0.688232 8 0.688232ZM2 8.68823C2 5.37452 4.68629 2.68823 8 2.68823C11.3137 2.68823 14 5.37452 14 8.68823C14 12.0019 11.3137 14.6882 8 14.6882C4.68629 14.6882 2 12.0019 2 8.68823Z" fill="black"/>
</g>
<defs>
<clipPath id="clip0_92_1624">
<rect width="16" height="16" fill="white" transform="translate(0 0.688232)"/>
</clipPath>
</defs>
</svg>
