<svg width="13" height="13" viewBox="0 0 13 13" fill="none" xmlns="http://www.w3.org/2000/svg">
<g clip-path="url(#clip0_92_1696)">
<path d="M7.46002 0.572513C7.39615 0.72126 7.37836 0.885738 7.40893 1.0447C7.4395 1.20366 7.51703 1.34981 7.63151 1.46426L8.79078 2.62438L5.89946 5.51999C5.75943 5.6761 5.68455 5.87994 5.69024 6.08957C5.69593 6.29921 5.78174 6.49869 5.93003 6.64698C6.07832 6.79526 6.2778 6.88108 6.48743 6.88677C6.69706 6.89245 6.90091 6.81758 7.05701 6.67755L9.95691 3.77937L11.1161 4.93864C11.2306 5.05312 11.3767 5.13065 11.5357 5.16122C11.6947 5.19179 11.8591 5.17399 12.0079 5.11013C12.1574 5.04913 12.2856 4.94544 12.3765 4.812C12.4673 4.67856 12.5169 4.5213 12.5189 4.35986V0.881195C12.518 0.66316 12.431 0.454312 12.2768 0.300137C12.1227 0.145962 11.9138 0.0589473 11.6958 0.0580444H8.21714C8.05414 0.0589975 7.8951 0.108427 7.76028 0.200041C7.62545 0.291656 7.52093 0.421314 7.46002 0.572513Z" fill="#00A5F4"/>
<path d="M12.5191 6.94518V10.3437C12.5177 10.798 12.3367 11.2332 12.0155 11.5544C11.6943 11.8756 11.259 12.0566 10.8048 12.058H2.23333C1.77909 12.0566 1.34384 11.8756 1.02264 11.5544C0.701447 11.2332 0.5204 10.798 0.519043 10.3437V1.77233C0.5204 1.31809 0.701447 0.882843 1.02264 0.561645C1.34384 0.240448 1.77909 0.0594011 2.23333 0.0580444H5.70905C5.93638 0.0580444 6.15439 0.14835 6.31514 0.309095C6.47588 0.469841 6.56619 0.687858 6.56619 0.915187C6.56619 1.14251 6.47588 1.36053 6.31514 1.52127C6.15439 1.68202 5.93638 1.77233 5.70905 1.77233H2.23333V10.3437H10.8048V6.94518C10.8048 6.71785 10.8951 6.49984 11.0559 6.33909C11.2166 6.17835 11.4346 6.08804 11.6619 6.08804C11.8893 6.08804 12.1073 6.17835 12.268 6.33909C12.4288 6.49984 12.5191 6.71785 12.5191 6.94518Z" fill="#00A5F4"/>
</g>
<defs>
<clipPath id="clip0_92_1696">
<rect width="12" height="12" fill="white" transform="translate(0.5 0.0580444)"/>
</clipPath>
</defs>
</svg>
