<svg width="366" height="88" viewBox="0 0 366 88" fill="none" xmlns="http://www.w3.org/2000/svg">
<path d="M0 33C0 14.7746 14.7746 0 33 0H333C351.225 0 366 14.7746 366 33V88H0V33Z" fill="#00A884"/>
<g clip-path="url(#clip0_92_890)">
<path d="M44 64C55.0457 64 64 55.0457 64 44C64 32.9543 55.0457 24 44 24C32.9543 24 24 32.9543 24 44C24 55.0457 32.9543 64 44 64Z" fill="#008069"/>
<path d="M50.0704 39.963C50.5687 39.963 51.0139 40.2747 51.1842 40.7431L52.6926 44.8913C52.9163 45.5064 52.599 46.1864 51.9838 46.4101C51.854 46.4573 51.7169 46.4815 51.5788 46.4815H51.4931V50.9259C51.4931 51.4168 51.0951 51.8148 50.6042 51.8148C50.1133 51.8148 49.7153 51.4168 49.7153 50.9259V46.4815H46.1598V50.6296C46.1598 51.2842 45.6291 51.8148 44.9746 51.8148H38.4561C37.8015 51.8148 37.2709 51.2842 37.2709 50.6296V46.4815H37.1852C36.5306 46.4815 36 45.9509 36 45.2963C36 45.1582 36.0241 45.0211 36.0713 44.8913L37.5798 40.7431C37.7501 40.2747 38.1952 39.963 38.6936 39.963H50.0704ZM44.382 46.4815H39.0487V50.037H44.382V46.4815ZM50.0116 37C50.5025 37 50.9005 37.398 50.9005 37.8889C50.9005 38.3798 50.5025 38.7778 50.0116 38.7778H38.7524C38.2614 38.7778 37.8635 38.3798 37.8635 37.8889C37.8635 37.398 38.2614 37 38.7524 37H50.0116Z" fill="white"/>
</g>
<path d="M74 44H199" stroke="white" stroke-width="8" stroke-linecap="round"/>
<defs>
<clipPath id="clip0_92_890">
<rect width="40" height="40" fill="white" transform="translate(24 24)"/>
</clipPath>
</defs>
</svg>
