<svg width="12" height="13" viewBox="0 0 12 13" fill="none" xmlns="http://www.w3.org/2000/svg">
<g clip-path="url(#clip0_92_1701)">
<path fill-rule="evenodd" clip-rule="evenodd" d="M11.7842 10.4549C11.4138 11.5805 9.96264 12.1419 8.92584 12.0483C7.50984 11.9203 5.96904 11.1692 4.79944 10.342C3.08024 9.12605 1.46984 7.24508 0.531436 5.24908C-0.131764 3.83868 -0.280562 2.1046 0.705838 0.819004C1.07064 0.343804 1.46504 0.0900103 2.05784 0.0604103C2.88024 0.0204103 2.99544 0.490891 3.27784 1.22369C3.48824 1.77169 3.76904 2.33069 3.92584 2.89869C4.21944 3.95869 3.19304 4.00299 3.06344 4.86939C2.98264 5.41579 3.64504 6.14854 3.94424 6.53814C4.53064 7.30134 5.23544 7.95961 6.03064 8.46041C6.48584 8.74761 7.22104 9.26515 7.74264 8.97955C8.54584 8.53955 8.46984 7.18521 9.59304 7.64361C10.1746 7.88041 10.7378 8.22214 11.293 8.52134C12.1514 8.98294 12.1114 9.46134 11.7842 10.4549C12.029 9.71254 11.5394 11.1973 11.7842 10.4549Z" fill="#00A5F4"/>
</g>
<defs>
<clipPath id="clip0_92_1701">
<rect width="12" height="12" fill="white" transform="translate(0 0.0580444)"/>
</clipPath>
</defs>
</svg>
