<svg width="16" height="16" viewBox="0 0 16 16" fill="none" xmlns="http://www.w3.org/2000/svg">
<g clip-path="url(#clip0_92_1463)">
<path fill-rule="evenodd" clip-rule="evenodd" d="M12.1142 0.666664C12.4678 0.666664 12.807 0.807138 13.057 1.05719L14.9426 2.9428C15.1927 3.19286 15.3332 3.53199 15.3332 3.88562V13.3333C15.3332 14.4379 14.4378 15.3333 13.3332 15.3333H2.6665C1.56194 15.3333 0.666504 14.4379 0.666504 13.3333V2.66666C0.666504 1.5621 1.56194 0.666664 2.6665 0.666664H12.1142ZM2.6665 2C2.29832 2 1.99984 2.29848 1.99984 2.66666V13.3333C1.99984 13.7015 2.29832 14 2.6665 14H3.33317V10C3.33317 8.8954 4.2286 8 5.33317 8H10.6665C11.7711 8 12.6665 8.8954 12.6665 10V14H13.3332C13.7014 14 13.9998 13.7015 13.9998 13.3333V4.55228C13.9998 4.19866 13.8594 3.85952 13.6093 3.60947L12.3904 2.39052C12.1403 2.14047 11.8012 2 11.4476 2H11.3332V3.33333C11.3332 4.4379 10.4378 5.33333 9.33317 5.33333H6.66651C5.56194 5.33333 4.6665 4.4379 4.6665 3.33333V2H2.6665ZM11.3332 14V10C11.3332 9.6318 11.0347 9.33333 10.6665 9.33333H5.33317C4.96498 9.33333 4.6665 9.6318 4.6665 10V14H11.3332ZM5.99984 2H9.99984V3.33333C9.99984 3.70152 9.70137 4 9.33317 4H6.66651C6.29832 4 5.99984 3.70152 5.99984 3.33333V2Z" fill="white"/>
</g>
<defs>
<clipPath id="clip0_92_1463">
<rect width="16" height="16" fill="white"/>
</clipPath>
</defs>
</svg>
