<svg width="38" height="37" viewBox="0 0 38 37" fill="none" xmlns="http://www.w3.org/2000/svg">
<path d="M25.0389 24.4289L18.9999 18.3899L12.9609 24.4289" stroke="black" stroke-width="1.50974" stroke-linecap="round" stroke-linejoin="round"/>
<path d="M18.9998 18.3899V31.9776" stroke="black" stroke-width="1.50974" stroke-linecap="round" stroke-linejoin="round"/>
<path d="M31.6664 28.0371C33.1389 27.2343 34.3022 25.964 34.9726 24.4267C35.643 22.8894 35.7823 21.1727 35.3686 19.5474C34.9549 17.9221 34.0118 16.4808 32.688 15.4511C31.3643 14.4213 29.7353 13.8617 28.0581 13.8606H26.1559C25.6989 12.0931 24.8472 10.4522 23.6647 9.06116C22.4823 7.67018 20.9999 6.56535 19.329 5.82974C17.6581 5.09413 15.8422 4.74688 14.0177 4.8141C12.1933 4.88132 10.4079 5.36126 8.79564 6.21783C7.18341 7.0744 5.78633 8.28532 4.70945 9.75955C3.63257 11.2338 2.9039 12.933 2.57824 14.7293C2.25257 16.5257 2.33838 18.3725 2.82921 20.131C3.32004 21.8894 4.20311 23.5137 5.41205 24.8817" stroke="black" stroke-width="1.50974" stroke-linecap="round" stroke-linejoin="round"/>
<path d="M25.0389 24.4289L18.9999 18.3899L12.9609 24.4289" stroke="black" stroke-width="1.50974" stroke-linecap="round" stroke-linejoin="round"/>
</svg>
