<svg width="15" height="15" viewBox="0 0 15 15" fill="none" xmlns="http://www.w3.org/2000/svg">
<g clip-path="url(#clip0_92_1581)">
<path fill-rule="evenodd" clip-rule="evenodd" d="M3.75 4.6875C3.2325 4.6875 2.8125 4.2675 2.8125 3.75C2.8125 3.2325 3.2325 2.8125 3.75 2.8125C4.2675 2.8125 4.6875 3.2325 4.6875 3.75C4.6875 4.2675 4.2675 4.6875 3.75 4.6875ZM3.75 1.875C2.71453 1.875 1.875 2.71453 1.875 3.75C1.875 4.78547 2.71453 5.625 3.75 5.625C4.78547 5.625 5.625 4.78547 5.625 3.75C5.625 2.71453 4.78547 1.875 3.75 1.875ZM14.0625 8.02875L11.25 5.15625L6.59013 9.89581L4.6875 7.96875L0.9375 11.4079V1.875C0.9375 1.3575 1.3575 0.9375 1.875 0.9375H13.125C13.6425 0.9375 14.0625 1.3575 14.0625 1.875V8.02875ZM14.0625 13.125C14.0625 13.6425 13.6425 14.0625 13.125 14.0625H10.7025L7.24875 10.5633L11.25 6.56206L14.0625 9.37456V13.125ZM1.875 14.0625C1.3575 14.0625 0.9375 13.6425 0.9375 13.125V12.6848L4.66173 9.34919L9.3755 14.0625H1.875ZM13.125 0H1.875C0.839531 0 0 0.839531 0 1.875V13.125C0 14.1605 0.839531 15 1.875 15H13.125C14.1605 15 15 14.1605 15 13.125V1.875C15 0.839531 14.1605 0 13.125 0Z" fill="black"/>
</g>
<defs>
<clipPath id="clip0_92_1581">
<rect width="15" height="15" fill="white"/>
</clipPath>
</defs>
</svg>
